<mxfile host="app.diagrams.net" modified="2024-02-16T09:49:00.811Z" agent="Mozilla/5.0 (Windows NT 10.0; Win64; x64) AppleWebKit/537.36 (KHTML, like Gecko) Chrome/121.0.0.0 Safari/537.36" etag="vCYLaFkM9PMKwP3VWdzS" version="23.1.5" type="device">
  <diagram name="Страница — 1" id="qtWJ4kbEv5SrtomV7M50">
    <mxGraphModel dx="1436" dy="827" grid="1" gridSize="10" guides="1" tooltips="1" connect="1" arrows="1" fold="1" page="1" pageScale="1" pageWidth="1169" pageHeight="827" math="0" shadow="0">
      <root>
        <mxCell id="0" />
        <mxCell id="1" parent="0" />
        <mxCell id="se5uSGUtDfo9S3oIwOjl-15" value="" style="edgeStyle=orthogonalEdgeStyle;rounded=0;orthogonalLoop=1;jettySize=auto;html=1;fontSize=11;" edge="1" parent="1" source="se5uSGUtDfo9S3oIwOjl-12" target="se5uSGUtDfo9S3oIwOjl-14">
          <mxGeometry relative="1" as="geometry" />
        </mxCell>
        <mxCell id="se5uSGUtDfo9S3oIwOjl-16" value="Книги" style="edgeLabel;html=1;align=center;verticalAlign=middle;resizable=0;points=[];fontSize=11;" vertex="1" connectable="0" parent="se5uSGUtDfo9S3oIwOjl-15">
          <mxGeometry relative="1" as="geometry">
            <mxPoint as="offset" />
          </mxGeometry>
        </mxCell>
        <mxCell id="se5uSGUtDfo9S3oIwOjl-20" value="" style="edgeStyle=orthogonalEdgeStyle;rounded=0;orthogonalLoop=1;jettySize=auto;html=1;fontSize=11;" edge="1" parent="1" source="se5uSGUtDfo9S3oIwOjl-12" target="se5uSGUtDfo9S3oIwOjl-19">
          <mxGeometry relative="1" as="geometry">
            <Array as="points">
              <mxPoint x="180" y="520" />
            </Array>
          </mxGeometry>
        </mxCell>
        <mxCell id="se5uSGUtDfo9S3oIwOjl-77" value="Книги" style="edgeLabel;html=1;align=center;verticalAlign=middle;resizable=0;points=[];fontSize=12;" vertex="1" connectable="0" parent="se5uSGUtDfo9S3oIwOjl-20">
          <mxGeometry x="0.3696" relative="1" as="geometry">
            <mxPoint x="1" as="offset" />
          </mxGeometry>
        </mxCell>
        <mxCell id="se5uSGUtDfo9S3oIwOjl-25" style="edgeStyle=orthogonalEdgeStyle;rounded=0;orthogonalLoop=1;jettySize=auto;html=1;entryX=0;entryY=0.5;entryDx=0;entryDy=0;fontSize=11;" edge="1" parent="1" source="se5uSGUtDfo9S3oIwOjl-12" target="se5uSGUtDfo9S3oIwOjl-23">
          <mxGeometry relative="1" as="geometry">
            <Array as="points">
              <mxPoint x="180" y="640" />
            </Array>
          </mxGeometry>
        </mxCell>
        <mxCell id="se5uSGUtDfo9S3oIwOjl-78" value="Выдачи" style="edgeLabel;html=1;align=center;verticalAlign=middle;resizable=0;points=[];fontSize=12;" vertex="1" connectable="0" parent="se5uSGUtDfo9S3oIwOjl-25">
          <mxGeometry x="0.61" relative="1" as="geometry">
            <mxPoint x="1" as="offset" />
          </mxGeometry>
        </mxCell>
        <mxCell id="se5uSGUtDfo9S3oIwOjl-26" style="edgeStyle=orthogonalEdgeStyle;rounded=0;orthogonalLoop=1;jettySize=auto;html=1;entryX=0;entryY=0.5;entryDx=0;entryDy=0;fontSize=11;" edge="1" parent="1" source="se5uSGUtDfo9S3oIwOjl-12" target="se5uSGUtDfo9S3oIwOjl-24">
          <mxGeometry relative="1" as="geometry">
            <Array as="points">
              <mxPoint x="180" y="760" />
            </Array>
          </mxGeometry>
        </mxCell>
        <mxCell id="se5uSGUtDfo9S3oIwOjl-12" value="Админ" style="rounded=0;whiteSpace=wrap;html=1;fontSize=11;" vertex="1" parent="1">
          <mxGeometry x="120" y="360" width="120" height="60" as="geometry" />
        </mxCell>
        <mxCell id="se5uSGUtDfo9S3oIwOjl-14" value="Статистика" style="rounded=0;whiteSpace=wrap;html=1;fontSize=11;" vertex="1" parent="1">
          <mxGeometry x="660" y="360" width="120" height="60" as="geometry" />
        </mxCell>
        <mxCell id="se5uSGUtDfo9S3oIwOjl-22" value="" style="edgeStyle=orthogonalEdgeStyle;rounded=0;orthogonalLoop=1;jettySize=auto;html=1;entryX=0;entryY=0.5;entryDx=0;entryDy=0;fontSize=11;" edge="1" parent="1" source="se5uSGUtDfo9S3oIwOjl-19" target="se5uSGUtDfo9S3oIwOjl-50">
          <mxGeometry relative="1" as="geometry">
            <mxPoint x="420" y="520" as="targetPoint" />
          </mxGeometry>
        </mxCell>
        <mxCell id="se5uSGUtDfo9S3oIwOjl-19" value="Ввод данных книг" style="ellipse;whiteSpace=wrap;html=1;rounded=0;fontSize=11;" vertex="1" parent="1">
          <mxGeometry x="280" y="480" width="80" height="80" as="geometry" />
        </mxCell>
        <mxCell id="se5uSGUtDfo9S3oIwOjl-32" style="edgeStyle=orthogonalEdgeStyle;rounded=0;orthogonalLoop=1;jettySize=auto;html=1;entryX=0;entryY=0.5;entryDx=0;entryDy=0;exitX=1;exitY=0.5;exitDx=0;exitDy=0;jumpStyle=arc;fontSize=11;" edge="1" parent="1" source="se5uSGUtDfo9S3oIwOjl-50" target="se5uSGUtDfo9S3oIwOjl-31">
          <mxGeometry relative="1" as="geometry">
            <mxPoint x="540" y="520" as="sourcePoint" />
          </mxGeometry>
        </mxCell>
        <mxCell id="se5uSGUtDfo9S3oIwOjl-36" value="" style="edgeStyle=orthogonalEdgeStyle;rounded=0;orthogonalLoop=1;jettySize=auto;html=1;exitX=1;exitY=0.5;exitDx=0;exitDy=0;entryX=0;entryY=0.5;entryDx=0;entryDy=0;jumpStyle=arc;fontSize=11;" edge="1" parent="1" source="se5uSGUtDfo9S3oIwOjl-50" target="se5uSGUtDfo9S3oIwOjl-45">
          <mxGeometry relative="1" as="geometry">
            <mxPoint x="540" y="520" as="sourcePoint" />
            <mxPoint x="620" y="900" as="targetPoint" />
            <Array as="points">
              <mxPoint x="610" y="520" />
              <mxPoint x="610" y="810" />
            </Array>
          </mxGeometry>
        </mxCell>
        <mxCell id="se5uSGUtDfo9S3oIwOjl-28" value="" style="edgeStyle=orthogonalEdgeStyle;rounded=0;orthogonalLoop=1;jettySize=auto;html=1;entryX=0;entryY=0.5;entryDx=0;entryDy=0;fontSize=11;" edge="1" parent="1" source="se5uSGUtDfo9S3oIwOjl-23" target="se5uSGUtDfo9S3oIwOjl-51">
          <mxGeometry relative="1" as="geometry">
            <mxPoint x="420" y="640" as="targetPoint" />
          </mxGeometry>
        </mxCell>
        <mxCell id="se5uSGUtDfo9S3oIwOjl-23" value="Ввод данных о выдачах" style="ellipse;whiteSpace=wrap;html=1;rounded=0;fontSize=11;" vertex="1" parent="1">
          <mxGeometry x="280" y="600" width="80" height="80" as="geometry" />
        </mxCell>
        <mxCell id="se5uSGUtDfo9S3oIwOjl-30" value="" style="edgeStyle=orthogonalEdgeStyle;rounded=0;orthogonalLoop=1;jettySize=auto;html=1;entryX=0;entryY=0.5;entryDx=0;entryDy=0;fontSize=11;" edge="1" parent="1" source="se5uSGUtDfo9S3oIwOjl-24" target="se5uSGUtDfo9S3oIwOjl-53">
          <mxGeometry relative="1" as="geometry">
            <mxPoint x="420" y="760" as="targetPoint" />
          </mxGeometry>
        </mxCell>
        <mxCell id="se5uSGUtDfo9S3oIwOjl-24" value="Ввод данных о пользователях" style="ellipse;whiteSpace=wrap;html=1;rounded=0;fontSize=11;" vertex="1" parent="1">
          <mxGeometry x="280" y="720" width="80" height="80" as="geometry" />
        </mxCell>
        <mxCell id="se5uSGUtDfo9S3oIwOjl-33" style="edgeStyle=orthogonalEdgeStyle;rounded=0;orthogonalLoop=1;jettySize=auto;html=1;entryX=0.5;entryY=1;entryDx=0;entryDy=0;exitX=1;exitY=0.5;exitDx=0;exitDy=0;jumpStyle=arc;fontSize=11;" edge="1" parent="1" source="se5uSGUtDfo9S3oIwOjl-51" target="se5uSGUtDfo9S3oIwOjl-31">
          <mxGeometry relative="1" as="geometry">
            <mxPoint x="540" y="640" as="sourcePoint" />
          </mxGeometry>
        </mxCell>
        <mxCell id="se5uSGUtDfo9S3oIwOjl-34" style="edgeStyle=orthogonalEdgeStyle;rounded=0;orthogonalLoop=1;jettySize=auto;html=1;entryX=0.5;entryY=1;entryDx=0;entryDy=0;jumpStyle=arc;exitX=1;exitY=0.5;exitDx=0;exitDy=0;fontSize=11;" edge="1" parent="1" source="se5uSGUtDfo9S3oIwOjl-53" target="se5uSGUtDfo9S3oIwOjl-31">
          <mxGeometry relative="1" as="geometry">
            <mxPoint x="720" y="560" as="targetPoint" />
            <mxPoint x="540" y="760.0344827586207" as="sourcePoint" />
          </mxGeometry>
        </mxCell>
        <mxCell id="se5uSGUtDfo9S3oIwOjl-61" style="edgeStyle=orthogonalEdgeStyle;rounded=0;orthogonalLoop=1;jettySize=auto;html=1;entryX=0.5;entryY=1;entryDx=0;entryDy=0;fontSize=11;startSize=8;endSize=8;" edge="1" parent="1" source="se5uSGUtDfo9S3oIwOjl-31" target="se5uSGUtDfo9S3oIwOjl-14">
          <mxGeometry relative="1" as="geometry" />
        </mxCell>
        <mxCell id="se5uSGUtDfo9S3oIwOjl-62" value="Значения" style="edgeLabel;html=1;align=center;verticalAlign=middle;resizable=0;points=[];fontSize=11;" vertex="1" connectable="0" parent="se5uSGUtDfo9S3oIwOjl-61">
          <mxGeometry x="-0.0741" y="1" relative="1" as="geometry">
            <mxPoint as="offset" />
          </mxGeometry>
        </mxCell>
        <mxCell id="se5uSGUtDfo9S3oIwOjl-31" value="Сбор статистики" style="ellipse;whiteSpace=wrap;html=1;rounded=0;fontSize=11;" vertex="1" parent="1">
          <mxGeometry x="680" y="480" width="80" height="80" as="geometry" />
        </mxCell>
        <mxCell id="se5uSGUtDfo9S3oIwOjl-39" value="" style="edgeStyle=orthogonalEdgeStyle;rounded=0;orthogonalLoop=1;jettySize=auto;html=1;fontSize=11;" edge="1" parent="1" source="se5uSGUtDfo9S3oIwOjl-37" target="se5uSGUtDfo9S3oIwOjl-38">
          <mxGeometry relative="1" as="geometry" />
        </mxCell>
        <mxCell id="se5uSGUtDfo9S3oIwOjl-80" value="Заказ" style="edgeLabel;html=1;align=center;verticalAlign=middle;resizable=0;points=[];fontSize=12;" vertex="1" connectable="0" parent="se5uSGUtDfo9S3oIwOjl-39">
          <mxGeometry relative="1" as="geometry">
            <mxPoint as="offset" />
          </mxGeometry>
        </mxCell>
        <mxCell id="se5uSGUtDfo9S3oIwOjl-55" style="edgeStyle=orthogonalEdgeStyle;rounded=0;orthogonalLoop=1;jettySize=auto;html=1;entryX=0;entryY=0.5;entryDx=0;entryDy=0;fontSize=11;startSize=8;endSize=8;exitX=0;exitY=0.5;exitDx=0;exitDy=0;jumpStyle=arc;" edge="1" parent="1" source="se5uSGUtDfo9S3oIwOjl-37" target="se5uSGUtDfo9S3oIwOjl-24">
          <mxGeometry relative="1" as="geometry" />
        </mxCell>
        <mxCell id="se5uSGUtDfo9S3oIwOjl-37" value="Пользователь" style="rounded=0;whiteSpace=wrap;html=1;fontSize=11;" vertex="1" parent="1">
          <mxGeometry x="250" y="1050" width="120" height="60" as="geometry" />
        </mxCell>
        <mxCell id="se5uSGUtDfo9S3oIwOjl-41" value="" style="edgeStyle=orthogonalEdgeStyle;rounded=0;orthogonalLoop=1;jettySize=auto;html=1;fontSize=11;startSize=8;endSize=8;" edge="1" parent="1" source="se5uSGUtDfo9S3oIwOjl-38" target="se5uSGUtDfo9S3oIwOjl-40">
          <mxGeometry relative="1" as="geometry" />
        </mxCell>
        <mxCell id="se5uSGUtDfo9S3oIwOjl-64" value="" style="edgeStyle=orthogonalEdgeStyle;rounded=0;orthogonalLoop=1;jettySize=auto;html=1;fontSize=12;startSize=8;endSize=8;" edge="1" parent="1" source="se5uSGUtDfo9S3oIwOjl-38" target="se5uSGUtDfo9S3oIwOjl-63">
          <mxGeometry relative="1" as="geometry">
            <Array as="points">
              <mxPoint x="480" y="1190" />
            </Array>
          </mxGeometry>
        </mxCell>
        <mxCell id="se5uSGUtDfo9S3oIwOjl-38" value="Страница приёма и оформления заказов" style="rounded=0;whiteSpace=wrap;html=1;fontSize=11;" vertex="1" parent="1">
          <mxGeometry x="420" y="1050" width="120" height="60" as="geometry" />
        </mxCell>
        <mxCell id="se5uSGUtDfo9S3oIwOjl-43" value="" style="edgeStyle=orthogonalEdgeStyle;rounded=0;orthogonalLoop=1;jettySize=auto;html=1;fontSize=11;startSize=8;endSize=8;entryX=0.5;entryY=1;entryDx=0;entryDy=0;jumpStyle=arc;" edge="1" parent="1" source="se5uSGUtDfo9S3oIwOjl-40" target="se5uSGUtDfo9S3oIwOjl-54">
          <mxGeometry relative="1" as="geometry">
            <mxPoint x="710" y="960" as="targetPoint" />
          </mxGeometry>
        </mxCell>
        <mxCell id="se5uSGUtDfo9S3oIwOjl-40" value="Ввод данных о книге" style="ellipse;whiteSpace=wrap;html=1;rounded=0;fontSize=11;" vertex="1" parent="1">
          <mxGeometry x="570" y="1040" width="80" height="80" as="geometry" />
        </mxCell>
        <mxCell id="se5uSGUtDfo9S3oIwOjl-46" style="edgeStyle=orthogonalEdgeStyle;rounded=0;orthogonalLoop=1;jettySize=auto;html=1;entryX=0.5;entryY=1;entryDx=0;entryDy=0;fontSize=11;startSize=8;endSize=8;exitX=0.5;exitY=0;exitDx=0;exitDy=0;" edge="1" parent="1" source="se5uSGUtDfo9S3oIwOjl-54" target="se5uSGUtDfo9S3oIwOjl-45">
          <mxGeometry relative="1" as="geometry">
            <mxPoint x="680" y="930.0588235294117" as="sourcePoint" />
          </mxGeometry>
        </mxCell>
        <mxCell id="se5uSGUtDfo9S3oIwOjl-57" style="edgeStyle=orthogonalEdgeStyle;rounded=0;orthogonalLoop=1;jettySize=auto;html=1;entryX=0.5;entryY=1;entryDx=0;entryDy=0;fontSize=11;startSize=8;endSize=8;" edge="1" parent="1" source="se5uSGUtDfo9S3oIwOjl-45" target="se5uSGUtDfo9S3oIwOjl-56">
          <mxGeometry relative="1" as="geometry">
            <Array as="points">
              <mxPoint x="820" y="840" />
            </Array>
          </mxGeometry>
        </mxCell>
        <mxCell id="se5uSGUtDfo9S3oIwOjl-45" value="&lt;span style=&quot;color: rgb(0, 0, 0); font-family: Helvetica; font-size: 11px; font-style: normal; font-variant-ligatures: normal; font-variant-caps: normal; font-weight: 400; letter-spacing: normal; orphans: 2; text-align: center; text-indent: 0px; text-transform: none; widows: 2; word-spacing: 0px; -webkit-text-stroke-width: 0px; background-color: rgb(251, 251, 251); text-decoration-thickness: initial; text-decoration-style: initial; text-decoration-color: initial; float: none; display: inline !important;&quot;&gt;Изменение остатка книг&lt;/span&gt;" style="ellipse;whiteSpace=wrap;html=1;aspect=fixed;fontSize=11;" vertex="1" parent="1">
          <mxGeometry x="780" y="770" width="80" height="80" as="geometry" />
        </mxCell>
        <mxCell id="se5uSGUtDfo9S3oIwOjl-50" value="&lt;span style=&quot;color: rgb(0, 0, 0); font-family: Helvetica; font-size: 11px; font-style: normal; font-variant-ligatures: normal; font-variant-caps: normal; font-weight: 400; letter-spacing: normal; orphans: 2; text-align: center; text-indent: 0px; text-transform: none; widows: 2; word-spacing: 0px; -webkit-text-stroke-width: 0px; background-color: rgb(251, 251, 251); text-decoration-thickness: initial; text-decoration-style: initial; text-decoration-color: initial; float: none; display: inline !important;&quot;&gt;Книги&lt;/span&gt;" style="shape=partialRectangle;whiteSpace=wrap;html=1;left=0;right=0;fillColor=none;fontSize=11;" vertex="1" parent="1">
          <mxGeometry x="420" y="490" width="120" height="60" as="geometry" />
        </mxCell>
        <mxCell id="se5uSGUtDfo9S3oIwOjl-51" value="&lt;span style=&quot;color: rgb(0, 0, 0); font-family: Helvetica; font-size: 11px; font-style: normal; font-variant-ligatures: normal; font-variant-caps: normal; font-weight: 400; letter-spacing: normal; orphans: 2; text-align: center; text-indent: 0px; text-transform: none; widows: 2; word-spacing: 0px; -webkit-text-stroke-width: 0px; background-color: rgb(251, 251, 251); text-decoration-thickness: initial; text-decoration-style: initial; text-decoration-color: initial; float: none; display: inline !important;&quot;&gt;Данные о выдачах&lt;/span&gt;" style="shape=partialRectangle;whiteSpace=wrap;html=1;left=0;right=0;fillColor=none;fontSize=11;" vertex="1" parent="1">
          <mxGeometry x="420" y="610" width="120" height="60" as="geometry" />
        </mxCell>
        <mxCell id="se5uSGUtDfo9S3oIwOjl-53" value="Данные о пользователей" style="shape=partialRectangle;whiteSpace=wrap;html=1;left=0;right=0;fillColor=none;fontSize=11;" vertex="1" parent="1">
          <mxGeometry x="420" y="730" width="120" height="60" as="geometry" />
        </mxCell>
        <mxCell id="se5uSGUtDfo9S3oIwOjl-54" value="&lt;span style=&quot;color: rgb(0, 0, 0); font-family: Helvetica; font-size: 11px; font-style: normal; font-variant-ligatures: normal; font-variant-caps: normal; font-weight: 400; letter-spacing: normal; orphans: 2; text-align: center; text-indent: 0px; text-transform: none; widows: 2; word-spacing: 0px; -webkit-text-stroke-width: 0px; background-color: rgb(251, 251, 251); text-decoration-thickness: initial; text-decoration-style: initial; text-decoration-color: initial; float: none; display: inline !important;&quot;&gt;Сведения о книге&lt;/span&gt;" style="shape=partialRectangle;whiteSpace=wrap;html=1;left=0;right=0;fillColor=none;fontSize=11;" vertex="1" parent="1">
          <mxGeometry x="550" y="920" width="120" height="60" as="geometry" />
        </mxCell>
        <mxCell id="se5uSGUtDfo9S3oIwOjl-58" style="edgeStyle=orthogonalEdgeStyle;rounded=0;orthogonalLoop=1;jettySize=auto;html=1;entryX=1;entryY=0.5;entryDx=0;entryDy=0;fontSize=11;startSize=8;endSize=8;" edge="1" parent="1" source="se5uSGUtDfo9S3oIwOjl-56" target="se5uSGUtDfo9S3oIwOjl-31">
          <mxGeometry relative="1" as="geometry" />
        </mxCell>
        <mxCell id="se5uSGUtDfo9S3oIwOjl-56" value="&lt;span style=&quot;color: rgb(0, 0, 0); font-family: Helvetica; font-size: 11px; font-style: normal; font-variant-ligatures: normal; font-variant-caps: normal; font-weight: 400; letter-spacing: normal; orphans: 2; text-align: center; text-indent: 0px; text-transform: none; widows: 2; word-spacing: 0px; -webkit-text-stroke-width: 0px; background-color: rgb(251, 251, 251); text-decoration-thickness: initial; text-decoration-style: initial; text-decoration-color: initial; float: none; display: inline !important;&quot;&gt;Сведения об остатках&lt;/span&gt;" style="shape=partialRectangle;whiteSpace=wrap;html=1;left=0;right=0;fillColor=none;fontSize=11;" vertex="1" parent="1">
          <mxGeometry x="760" y="610" width="120" height="60" as="geometry" />
        </mxCell>
        <mxCell id="se5uSGUtDfo9S3oIwOjl-66" value="" style="edgeStyle=orthogonalEdgeStyle;rounded=0;orthogonalLoop=1;jettySize=auto;html=1;fontSize=12;startSize=8;endSize=8;" edge="1" parent="1" source="se5uSGUtDfo9S3oIwOjl-63" target="se5uSGUtDfo9S3oIwOjl-65">
          <mxGeometry relative="1" as="geometry" />
        </mxCell>
        <mxCell id="se5uSGUtDfo9S3oIwOjl-63" value="Определение наличия книг" style="rounded=0;whiteSpace=wrap;html=1;fontSize=11;" vertex="1" parent="1">
          <mxGeometry x="550" y="1160" width="120" height="60" as="geometry" />
        </mxCell>
        <mxCell id="se5uSGUtDfo9S3oIwOjl-68" value="" style="edgeStyle=orthogonalEdgeStyle;rounded=0;orthogonalLoop=1;jettySize=auto;html=1;fontSize=12;startSize=8;endSize=8;entryX=0.5;entryY=1;entryDx=0;entryDy=0;" edge="1" parent="1" source="se5uSGUtDfo9S3oIwOjl-65" target="se5uSGUtDfo9S3oIwOjl-67">
          <mxGeometry relative="1" as="geometry" />
        </mxCell>
        <mxCell id="se5uSGUtDfo9S3oIwOjl-65" value="Ввод заказа" style="ellipse;whiteSpace=wrap;html=1;fontSize=11;rounded=0;" vertex="1" parent="1">
          <mxGeometry x="870" y="1150" width="80" height="80" as="geometry" />
        </mxCell>
        <mxCell id="se5uSGUtDfo9S3oIwOjl-73" style="edgeStyle=orthogonalEdgeStyle;rounded=0;orthogonalLoop=1;jettySize=auto;html=1;entryX=1;entryY=0.5;entryDx=0;entryDy=0;fontSize=12;startSize=8;endSize=8;exitX=0.5;exitY=0;exitDx=0;exitDy=0;" edge="1" parent="1" source="se5uSGUtDfo9S3oIwOjl-67" target="se5uSGUtDfo9S3oIwOjl-14">
          <mxGeometry relative="1" as="geometry">
            <mxPoint x="810" y="1050" as="targetPoint" />
          </mxGeometry>
        </mxCell>
        <mxCell id="se5uSGUtDfo9S3oIwOjl-76" style="edgeStyle=orthogonalEdgeStyle;rounded=0;orthogonalLoop=1;jettySize=auto;html=1;entryX=0.5;entryY=1;entryDx=0;entryDy=0;fontSize=12;startSize=8;endSize=8;" edge="1" parent="1" source="se5uSGUtDfo9S3oIwOjl-67" target="se5uSGUtDfo9S3oIwOjl-45">
          <mxGeometry relative="1" as="geometry" />
        </mxCell>
        <mxCell id="se5uSGUtDfo9S3oIwOjl-67" value="&lt;span style=&quot;color: rgb(0, 0, 0); font-family: Helvetica; font-size: 11px; font-style: normal; font-variant-ligatures: normal; font-variant-caps: normal; font-weight: 400; letter-spacing: normal; orphans: 2; text-align: center; text-indent: 0px; text-transform: none; widows: 2; word-spacing: 0px; -webkit-text-stroke-width: 0px; background-color: rgb(251, 251, 251); text-decoration-thickness: initial; text-decoration-style: initial; text-decoration-color: initial; float: none; display: inline !important;&quot;&gt;Заказ&lt;/span&gt;" style="shape=partialRectangle;whiteSpace=wrap;html=1;left=0;right=0;fillColor=none;fontSize=11;" vertex="1" parent="1">
          <mxGeometry x="850" y="920" width="120" height="60" as="geometry" />
        </mxCell>
      </root>
    </mxGraphModel>
  </diagram>
</mxfile>
